<?xml version="1.0"?>
<svg xmlns="http://www.w3.org/2000/svg" height="512px" viewBox="1 -47 511.99998 511" width="512px"><path d="m512 30.34375h-29.84375v-29.84375h-29.847656v29.84375h-210.90625v29.847656h-38.589844l-29.847656-29.847656h-101.894532l-23.664062 23.667969-19.292969-19.292969-21.105469 21.101562 19.296876 19.292969-23.667969 23.667969v21.101562h509.363281zm0 0" fill="#933EC5"/><path d="m150.074219 418.335938 15.308593-119.382813h105.863282v-89.535156h145.519531l29.847656-59.691407h-443.976562v50.949219l28.316406 28.3125-30.953125 189.347657zm31.636719-208.917969v29.847656h29.84375v-29.847656h29.847656v59.691406h-59.691406c-16.453126 0-29.847657-13.394531-29.847657-29.84375 0-16.453125 13.394531-29.847656 29.847657-29.847656zm0 0" fill="#933EC5"/></svg>
