<svg height="512pt" viewBox="-20 0 512 512.00001" width="512pt" xmlns="http://www.w3.org/2000/svg"><path d="m84.859375 451.222656 17.105469-17.105468 38.941406 77.882812 92.398438-30.800781-59.472657-118.945313 11.105469-11.613281h33.105469c37.117187 28.4375 81.183593 46.242187 127.898437 50.617187l14.226563 1.332032 12.785156-89.480469-15.949219-1.238281c-24.410156-1.902344-47.84375-9.339844-68.675781-21.679688l17.6875-17.6875-21.199219-21.199218 77.414063-77.171876-21.234375-21.230468 131.6875-131.6875-21.214844-21.214844-25.609375 25.609375-25.609375-25.609375-21.214844 21.214844 25.609375 25.609375-25.269531 25.265625-63.644531-21.214844c-.105469.105469-315.730469 315.488281-315.730469 315.488281zm106.140625 12.453125-34.894531 11.632813-31.777344-63.554688 27.140625-27.140625zm147.820312-123.800781-4.246093 29.722656c-32.289063-5.148437-62.820313-17.410156-89.667969-35.988281l21.640625-21.640625c21.902344 14.207031 46.46875 23.703125 72.273437 27.90625zm-14.988281-254.671875 31.824219 10.605469-35.875 35.875-21.214844-21.214844zm-46.496093 46.464844 42.429687 42.429687-56.164063 55.988282-42.429687-42.429688zm-13.769532 140.816406.015625.015625-48.644531 48.136719h-42.429688l-87.648437 88.15625-42.429687-42.429688 157.507812-157.507812zm0 0"/><path d="m204.332031 246.886719 21.214844 21.214843-21.214844 21.214844-21.214843-21.214844zm0 0"/></svg>